<svg id="Capa_1" enable-background="new 0 0 495.208 495.208" height="512" viewBox="0 0 495.208 495.208" width="512" xmlns="http://www.w3.org/2000/svg"><g><path d="m375.479 288.315-70.308 70.308c-44.401-1.507-85.93-19.51-117.502-51.082-31.552-31.553-49.555-73.048-51.079-117.422l70.347-70.347-119.729-119.728-87.208 87.207.001 6.215c.012 52.162 9.916 103.013 29.438 151.139 20.215 49.834 49.904 94.541 88.243 132.879 38.36 38.36 83.096 68.062 132.963 88.277 48.132 19.512 98.981 29.404 151.144 29.404h.089l6.211-.001 87.118-87.12zm20.231 176.801c-46.148-.736-91.133-9.864-133.794-27.158-46.125-18.698-87.516-46.183-123.021-81.688-35.484-35.485-62.958-76.849-81.656-122.943-17.293-42.632-26.431-87.581-27.187-133.702l57.155-57.155 77.303 77.303-58.027 58.027.001 6.215c.012 54.675 21.311 106.078 59.972 144.739 38.676 38.676 90.088 59.974 144.782 59.972h.047l6.211-.001 57.982-57.983 77.303 77.303z"/></g></svg>