<?xml version="1.0" encoding="iso-8859-1"?>
<!-- Generator: Adobe Illustrator 19.0.0, SVG Export Plug-In . SVG Version: 6.00 Build 0)  -->
<svg version="1.1" id="Capa_1" xmlns="http://www.w3.org/2000/svg" xmlns:xlink="http://www.w3.org/1999/xlink" x="0px" y="0px"
	 viewBox="0 0 511.976 511.976" style="enable-background:new 0 0 511.976 511.976;" xml:space="preserve">
<g>
	<g>
		<path d="M208,399.988c-26.464,0-48,21.536-48,48s21.536,48,48,48s48-21.536,48-48S234.464,399.988,208,399.988z M208,463.988
			c-8.832,0-16-7.168-16-16c0-8.832,7.168-16,16-16c8.832,0,16,7.168,16,16C224,456.82,216.832,463.988,208,463.988z"/>
	</g>
</g>
<g>
	<g>
		<path d="M400,399.988c-26.464,0-48,21.536-48,48s21.536,48,48,48s48-21.536,48-48S426.464,399.988,400,399.988z M400,463.988
			c-8.832,0-16-7.168-16-16c0-8.832,7.168-16,16-16c8.832,0,16,7.168,16,16C416,456.82,408.832,463.988,400,463.988z"/>
	</g>
</g>
<g>
	<g>
		<path d="M508.256,85.748c-3.008-3.648-7.52-5.76-12.256-5.76H119.936l-13.92-52.128c-1.856-7.008-8.192-11.872-15.456-11.872H16
			c-8.832,0-16,7.168-16,16c0,8.832,7.168,16,16,16h62.272l82.272,308.128c1.856,7.008,8.192,11.872,15.456,11.872h256
			c8.832,0,16-7.168,16-16c0-8.832-7.168-16-16-16H188.288l-9.376-35.136l285.792-12.864c7.456-0.352,13.696-5.792,15.008-13.12
			l32-176C512.576,94.196,511.296,89.396,508.256,85.748z M450.56,256.596l-280.128,12.608L128.48,111.988h348.352L450.56,256.596z"
			/>
	</g>
</g>
<g>
	<g>
		<path d="M400,143.988c-8.832,0-16,7.168-16,16v64c0,8.832,7.168,16,16,16c8.832,0,16-7.168,16-16v-64
			C416,151.156,408.832,143.988,400,143.988z"/>
	</g>
</g>
<g>
	<g>
		<path d="M304,143.988c-8.832,0-16,7.168-16,16v64c0,8.832,7.168,16,16,16c8.832,0,16-7.168,16-16v-64
			C320,151.156,312.832,143.988,304,143.988z"/>
	</g>
</g>
<g>
	<g>
		<path d="M208,143.988c-8.832,0-16,7.168-16,16v64c0,8.832,7.168,16,16,16c8.832,0,16-7.168,16-16v-64
			C224,151.156,216.832,143.988,208,143.988z"/>
	</g>
</g>
<g>
</g>
<g>
</g>
<g>
</g>
<g>
</g>
<g>
</g>
<g>
</g>
<g>
</g>
<g>
</g>
<g>
</g>
<g>
</g>
<g>
</g>
<g>
</g>
<g>
</g>
<g>
</g>
<g>
</g>
</svg>
