<svg height="512pt" viewBox="0 0 512 512" width="512pt" xmlns="http://www.w3.org/2000/svg"><path d="m437 0h-362c-41.355469 0-75 33.644531-75 75v362c0 41.355469 33.644531 75 75 75h362c41.355469 0 75-33.644531 75-75v-362c0-41.355469-33.644531-75-75-75zm-54.296875 255-9 45h-57.703125v182h-45v-182h-55v-45h55v-90c0-33.085938 26.914062-60 60-60h55v45h-70v105zm99.296875 182c0 24.8125-20.1875 45-45 45h-91v-152h52.296875l21-105h-73.296875v-45h70v-105h-85c-49.625 0-90 40.375-90 90v60h-55v105h55v152h-166c-24.8125 0-45-20.1875-45-45v-362c0-24.8125 20.1875-45 45-45h362c24.8125 0 45 20.1875 45 45zm0 0"/></svg>