<?xml version="1.0" encoding="utf-8"?><svg version="1.1" id="Layer_1" xmlns="http://www.w3.org/2000/svg" xmlns:xlink="http://www.w3.org/1999/xlink" x="0px" y="0px" viewBox="0 0 92.26 122.88" style="enable-background:new 0 0 92.26 122.88" xml:space="preserve"><style type="text/css">.st0{fill-rule:evenodd;clip-rule:evenodd;}</style><g><path class="st0" d="M47.49,116.85c6.31-4.01,11.98-8.87,16.92-14.29c10.73-11.75,17.97-26.11,20.87-40.2 c2.88-13.91,1.52-27.54-4.85-38.06c-1.81-3.02-4.08-5.78-6.78-8.26c-7.74-7.05-16.6-10.41-25.52-10.5 c-9.37-0.07-18.87,3.45-27.27,10.14c-3.58,2.86-6.53,6.15-8.82,9.78c-5.9,9.28-7.69,20.8-5.74,32.85 c1.97,12.23,7.78,25.02,17.04,36.61c6.44,8.08,14.54,15.58,24.18,21.91L47.49,116.85L47.49,116.85L47.49,116.85z M46.13,23.84 L22.76,46.73l5.7,2.99l17.52-18.39L63.8,49.72l5.7-2.99L46.13,23.84L46.13,23.84z M29.71,51.2L29.71,51.2l16.45-16.45l16.4,16.45h0 v16.14H50.58v-11.4h-8.99v11.4l-11.88,0V51.2L29.71,51.2z M68.52,106.27c-5.6,6.12-12.09,11.61-19.42,16.06 c-0.88,0.66-2.13,0.75-3.13,0.11c-10.8-6.87-19.85-15.13-26.99-24.09C9.15,86.02,2.94,72.34,0.83,59.16 c-2.16-13.36-0.14-26.2,6.51-36.68c2.63-4.13,5.97-7.89,10.07-11.14C26.78,3.88,37.51-0.07,48.17,0 c10.28,0.09,20.42,3.9,29.22,11.93c3.09,2.81,5.67,5.99,7.78,9.48c7.15,11.77,8.69,26.81,5.56,42.01 c-3.11,15.04-10.8,30.33-22.19,42.8L68.52,106.27L68.52,106.27L68.52,106.27z"/></g></svg>