<?xml version="1.0" standalone="no"?>
<!DOCTYPE svg PUBLIC "-//W3C//DTD SVG 20010904//EN"
 "http://www.w3.org/TR/2001/REC-SVG-20010904/DTD/svg10.dtd">
<svg version="1.0" xmlns="http://www.w3.org/2000/svg"
 width="211.000000pt" height="139.000000pt" viewBox="0 0 211.000000 139.000000"
 preserveAspectRatio="xMidYMid meet">
<metadata>
Created by potrace 1.16, written by Peter Selinger 2001-2019
</metadata>
<g transform="translate(0.000000,139.000000) scale(0.100000,-0.100000)"
fill="#000000" stroke="none">
<path d="M487 1083 c-4 -4 -42 -21 -84 -38 l-75 -30 -35 -105 c-22 -66 -37
-133 -40 -180 -3 -41 -9 -80 -14 -86 -6 -7 -5 -42 2 -85 6 -41 12 -90 13 -109
4 -43 13 -82 33 -138 13 -35 18 -40 30 -30 13 10 14 6 8 -28 l-7 -39 51 49
c57 56 114 157 131 232 20 84 8 609 -13 587z"/>
<path d="M687 1072 c2 -11 -9 -87 -27 -168 -73 -345 -41 -532 110 -634 83 -56
90 -58 90 -24 0 16 11 61 25 99 13 39 25 82 25 96 0 14 5 40 11 57 8 23 8 61
-1 139 -6 60 -15 146 -20 193 -11 116 -40 177 -89 186 -38 7 -72 25 -108 57
-22 19 -22 19 -16 -1z"/>
<path d="M552 1008 c1 -18 0 -76 -4 -128 -4 -52 -10 -192 -12 -310 -5 -178 -3
-218 9 -234 14 -19 15 -19 36 0 21 19 21 23 15 229 -7 246 -9 422 -4 450 2 14
-3 21 -20 23 -21 3 -23 0 -20 -30z"/>
<path d="M1025 600 l0 -190 37 0 36 0 -5 74 -6 73 47 7 c70 11 109 50 109 107
0 86 -43 119 -155 119 l-63 0 0 -190z"/>
<path d="M1332 690 l60 -100 -4 -90 -3 -90 36 0 35 0 -4 83 c-4 79 -3 86 31
152 19 39 47 87 61 108 l25 37 -39 0 c-29 0 -40 -4 -40 -15 0 -8 -15 -42 -34
-76 l-34 -62 -31 61 c-17 34 -31 68 -31 77 0 11 -11 15 -44 15 l-44 0 60 -100z"/>
<path d="M1650 761 c-24 -23 -30 -38 -30 -72 0 -36 5 -46 37 -73 109 -92 119
-110 83 -146 -26 -26 -70 -26 -104 1 l-26 20 0 -34 c0 -39 14 -47 90 -47 55 0
87 20 107 67 22 53 4 93 -65 146 -50 38 -57 47 -57 77 0 29 5 36 28 44 22 8
35 7 58 -7 l30 -17 -3 33 c-3 32 -4 32 -61 35 -52 3 -60 0 -87 -27z"/>
</g>
</svg>
