<?xml version="1.0" standalone="no"?>
<!DOCTYPE svg PUBLIC "-//W3C//DTD SVG 20010904//EN"
 "http://www.w3.org/TR/2001/REC-SVG-20010904/DTD/svg10.dtd">
<svg version="1.0" xmlns="http://www.w3.org/2000/svg"
 width="339.000000pt" height="171.000000pt" viewBox="0 0 339.000000 171.000000"
 preserveAspectRatio="xMidYMid meet">

<g transform="translate(0.000000,171.000000) scale(0.100000,-0.100000)"
fill="#000000" stroke="none">
<path d="M2340 1245 c-57 -18 -118 -69 -136 -111 -18 -44 -18 -128 1 -163 22
-43 92 -100 189 -155 108 -60 142 -93 151 -146 8 -48 -16 -103 -57 -133 -34
-25 -130 -27 -176 -3 -37 19 -75 67 -93 119 -10 29 -18 37 -37 37 -22 0 -23
-3 -17 -42 18 -124 26 -148 48 -153 92 -21 120 -24 182 -24 39 0 86 6 106 13
86 31 149 111 149 192 -1 81 -48 131 -245 258 -90 58 -125 101 -125 156 0 52
36 103 81 114 81 20 163 -26 195 -109 11 -31 23 -45 35 -45 16 0 19 7 18 43 0
23 -4 62 -7 86 -7 42 -9 45 -52 57 -72 22 -160 26 -210 9z"/>
<path d="M752 1233 c2 -9 20 -21 43 -27 l40 -12 3 -332 2 -332 -45 -12 c-29
-8 -45 -17 -43 -26 2 -10 36 -14 151 -15 130 -2 147 0 147 14 0 11 -12 19 -35
23 -67 13 -65 3 -65 356 l0 319 36 7 c125 23 204 -44 204 -172 0 -47 -5 -69
-22 -94 -40 -58 -72 -75 -139 -74 -50 1 -59 -1 -57 -15 2 -9 22 -22 45 -30 92
-32 211 29 259 133 56 120 8 240 -113 286 -47 17 -78 20 -234 20 -163 0 -180
-2 -177 -17z"/>
<path d="M1365 1241 c-6 -11 -1 -15 46 -30 20 -6 44 -20 53 -30 18 -20 185
-320 205 -369 10 -25 12 -64 8 -155 -6 -130 -13 -147 -64 -147 -15 0 -23 -6
-23 -17 0 -16 13 -18 135 -18 118 0 135 2 135 16 0 11 -12 19 -34 23 -43 8
-46 18 -46 186 l0 136 91 149 c50 83 99 162 108 178 10 17 34 34 62 45 77 29
59 37 -81 37 -130 0 -160 -9 -99 -29 55 -19 57 -35 14 -112 -51 -93 -123 -204
-132 -204 -5 0 -41 64 -82 142 l-74 141 23 19 c12 10 31 18 41 18 10 0 19 7
19 15 0 13 -23 15 -149 15 -83 0 -152 -4 -156 -9z"/>
</g>
</svg>
